PathFileType	4	(X/Y/Z)	Patient4_TMGait_0pt3_03_left_07.trc.trc
DataRate	CameraRate	NumFrames	NumMarkers	Units	OrigDataRate	OrigDataStartFrame	OrigNumFrames
52.830188679245	52.830188679245	5	33	mm	52.830188679245	36	       141
Frame#	Time	Sacral			L.Shoulder			Chest			R.Shoulder			Neck			R.ASIS			L.ASIS			R.Thigh.Superior			R.Thigh.Lateral			R.Thigh.Inferior			R.Patella			L.Thigh.Superior			L.Thigh.Lateral			L.Thigh.Inferior			L.Patella			L.Shank.Superior			L.Shank.Lateral			L.Shank.Inferior			R.Shank.Superior			R.Shank.Lateral			R.Shank.Inferior			R.Heel			R.Midfoot.Superior			R.Midfoot.Lateral			R.Toe			L.Heel			L.Midfoot.Lateral			L.Midfoot.Superior			L.Toe			L.Elbow			L.Wrist			R.Elbow			R.Wrist			
		X1	Y1	Z1	X2	Y2	Z2	X3	Y3	Z3	X4	Y4	Z4	X5	Y5	Z5	X6	Y6	Z6	X7	Y7	Z7	X8	Y8	Z8	X9	Y9	Z9	X10	Y10	Z10	X11	Y11	Z11	X12	Y12	Z12	X13	Y13	Z13	X14	Y14	Z14	X15	Y15	Z15	X16	Y16	Z16	X17	Y17	Z17	X18	Y18	Z18	X19	Y19	Z19	X20	Y20	Z20	X21	Y21	Z21	X22	Y22	Z22	X23	Y23	Z23	X24	Y24	Z24	X25	Y25	Z25	X26	Y26	Z26	X27	Y27	Z27	X28	Y28	Z28	X29	Y29	Z29	X30	Y30	Z30	X31	Y31	Z31	X32	Y32	Z32	X33	Y33	Z33	

36	12.892500000000	743.396540479045	1000.768090158672	508.484750199278	874.665414636612	1421.157580031157	293.589234873290	1012.701176781802	1355.655892222902	427.866777627741	971.122681712515	1433.927408634089	613.765539953158	892.091221333103	1485.918848784890	450.044506757026	986.305051971558	926.887856778420	586.801224374272	932.102792229299	955.566616256926	318.966038026387	978.085789488614	713.271380095053	555.468302481074	880.488527643700	616.912404470098	624.489240988284	932.250346142979	553.307656253566	537.023358374783	909.354541499474	462.052497188254	542.695444643517	1010.570237418433	763.248162783616	354.826303609820	947.653785649141	633.575499204768	287.754284113181	1046.574811165012	570.645537298205	349.021257230363	1059.284927571404	497.916666675602	352.445676512762	1032.474661388813	423.299595071069	342.778570930078	945.930252752594	309.248157961757	286.037355314541	999.749991597584	195.632043946532	350.586554307425	855.030546499713	383.667414173379	553.679456794814	764.519958582352	304.018459816728	627.176842180346	766.315366434095	203.345234597562	560.280422098717	589.290045621616	66.056077816663	549.860781424026	768.995339934333	99.784599122896	565.466414592723	679.247441174580	48.009158234863	613.099919822041	883.231078774342	37.076434899380	579.087727854366	873.308514323370	39.043490516159	381.973961937440	949.805093760700	36.167081916393	303.934616296502	1032.119112832446	97.583573637220	333.642878007410	1160.770752236189	46.582982990794	308.158707166492	759.664418031646	1080.922063867344	215.690375680031	802.028572213833	821.694620577429	223.983985188494	1134.128439387988	1125.457209147944	702.276020379374	1377.354598271103	1160.464446725864	633.088081167579	
37	12.911428571429	744.353924943437	1001.753128024816	503.510493203270	877.242564950056	1421.768771816004	289.233933492397	1014.187723905540	1356.390903668340	424.663325835072	971.290928417687	1434.903803934321	610.173448999603	893.373747128842	1486.706661817193	445.806812514581	986.603115453479	927.670999346969	583.930683509129	934.437686439761	956.113240829877	315.706784087932	977.371345222393	713.897646679655	553.937475994726	878.570709476189	618.559933902675	622.912269069281	930.736817185127	553.890049184485	536.431860738595	907.271312005970	462.825989062197	542.679104323167	1011.734107090995	762.935624800831	352.686498664958	948.318830600480	633.327954338122	285.825380500711	1046.343134250133	569.903477228961	348.015032941273	1058.635479482595	497.038498184890	351.837648686626	1031.103234110705	422.508327453647	342.334812327905	943.881127670905	309.117373163197	285.599037089762	995.894937705249	195.197302196500	350.738181389408	852.304901737165	384.894769639756	553.693332298379	760.496076939626	306.460752438010	626.854532300980	762.444457728926	205.135659219396	560.767928644688	584.493411911421	69.305028397315	550.128826509544	764.574514069032	100.409262358631	565.877278229215	674.150311700147	49.557106346154	613.229298385693	877.737567030944	36.813921741343	579.089675019757	867.833330729564	39.279669946519	382.094065850334	944.312830804478	36.392174121418	304.127078784667	1026.894493230627	97.456223865416	333.928575634495	1155.431545264448	45.656994669996	308.189214145040	765.967124477470	1080.290770473498	209.437372178985	815.763561226855	822.246828722008	215.105379105234	1130.069460372725	1123.499783039390	699.589462807822	1376.294503227429	1146.113629499226	634.322385171481	
38	12.930357142857	745.346189545450	1002.740605645658	498.440129613108	879.945267364039	1422.470508868266	284.917772350124	1015.697387835210	1357.184863182162	421.570845721209	971.352996673086	1435.915173073047	606.664764270495	894.673875329011	1487.528589623973	441.643268457702	986.883879487931	928.507789248416	581.022526346073	936.802902293337	956.654518004559	312.389578842696	976.663082379042	714.629683571223	552.379145447286	876.687753569708	620.307259907750	621.300872113761	929.295916876798	554.568371585480	535.861391183263	905.318533949157	463.651078138651	542.730558308274	1012.870006411059	762.591615609678	350.405244540767	948.827680056512	633.045064514015	283.860749580233	1045.999450914204	569.132842324114	346.864282604554	1057.859966730887	496.137119955463	351.086469610069	1029.583061973163	421.713932431039	341.777630638060	941.638440457960	308.964109999281	285.152191192753	991.973586851458	194.788999709740	350.839890930135	849.667943873759	386.195453750101	553.762314538959	756.522364358899	309.005476556295	626.546081185983	758.665884222462	206.996152836119	561.332496229974	579.744324487632	72.615337842007	550.436488828642	760.214964838161	101.011002490220	566.302017035556	669.083210921076	51.096078891063	613.380635577537	872.261122101975	36.593933165386	579.086383930873	862.341651516798	39.549640650216	382.249543425159	938.793364282633	36.624391676042	304.345753754935	1021.653181533926	97.336173078723	334.192756324529	1150.055466916391	44.708713701971	308.203996709135	772.945398432021	1079.702076423637	202.933795016213	829.806611491302	823.038458952870	206.265170054128	1125.381835267211	1121.413280139661	697.223843096810	1374.087501049702	1130.174838662499	636.584726996697	
39	12.949285714286	746.360159246891	1003.721503821495	493.294040852142	882.751900715416	1423.251155510087	280.657581384459	1017.229389569515	1358.008151573270	418.571894143428	971.349750838376	1436.919022464507	603.235588400653	896.007243486841	1488.364594944209	437.569583307398	987.129137013808	929.372216000393	578.052009971705	939.165624639067	957.165250966515	309.000868849861	975.971171344995	715.432413910646	550.777984481400	874.865804235545	622.097179685430	619.626135749393	927.977016248920	555.309493057484	535.284474725845	903.556895654364	464.457983032125	542.823267308311	1013.962496532354	762.228866545730	347.985337213857	949.189114670060	632.737012588427	281.853180695562	1045.553944653255	568.348390619705	345.553304017309	1056.961374245045	495.224028684872	350.180517931500	1027.923559929590	420.918645563388	341.092885883621	939.206100801901	308.793681229043	284.671393249816	987.980890041999	194.409796409794	350.882436869672	847.167479430874	387.514927728133	553.855274904502	752.648028161060	311.604473784930	626.228375944423	754.996181154190	208.884625243644	561.941315749643	575.036676265863	75.951842750850	550.776580586855	755.911634209992	101.562682505952	566.721689634070	664.043930110911	52.609351782456	613.552153173552	866.806696143719	36.423123979722	579.075992424324	856.833843606897	39.844493800986	382.427317073866	933.249366316768	36.860320203628	304.574188786466	1016.385666798348	97.230186186553	334.426884660738	1144.639490200354	43.789152598854	308.202534961385	780.604877660847	1079.157434256949	196.200305875987	844.151596565521	824.039099939178	197.543047582940	1120.054332935076	1119.174161101591	695.194360670761	1370.440325919585	1112.662788829078	639.885964221164	
40	12.968214285714	747.370035665453	1004.682875328003	488.086860243712	885.651238153287	1424.092722304905	276.463791297836	1018.783000581927	1358.824790162075	415.653169119770	971.311821561324	1437.869704629578	599.881282712808	897.388674329149	1489.191588593859	433.592748515956	987.312819456894	930.236531706286	575.007521885223	941.499861385031	957.620706120408	305.538717276502	975.332899533237	716.268255176260	549.126172147889	873.172809873108	623.855379415671	617.864653255741	926.878994453729	556.066817534698	534.673493198908	902.103805488292	465.161086065551	542.936632674396	1014.992019757473	761.844580026091	345.442558496394	949.413073058797	632.407923526972	279.797374727123	1045.006307622211	567.554469233443	344.090105417029	1055.933983133486	494.302355783441	349.127923028736	1026.126669441172	420.119414275900	340.281149474743	936.589932838762	308.605477466146	284.138274447669	983.906782434127	194.056186479864	350.863277419535	844.899206427112	388.784561108502	553.943666514803	748.962610877497	314.210210080213	625.879436652473	751.478810198424	210.760421570776	562.561740777211	570.378746938920	79.313374359406	551.142194620571	751.672856902167	102.042883410692	567.122408510871	659.038224571712	54.101973118207	613.742901419333	861.377505392794	36.303196684505	579.056247398164	851.309099062709	40.148562350793	382.613311125876	927.683036408545	37.092204466694	304.796337521873	1011.081304660178	97.142212683932	334.625592205863	1139.181860559365	42.943728073085	308.186292030779	788.935249039309	1078.666142001023	189.259254677904	858.807238666640	825.227177017661	189.021238007643	1114.076707718970	1116.771813322231	693.510861512748	1365.049699975258	1093.656233649371	644.188121912812	
